<svg width="24" height="24" viewBox="0 0 24 24" fill="none" xmlns="http://www.w3.org/2000/svg">
<path d="M20.9269 3.07245C20.2239 2.36945 19.2288 2.09351 18.2638 2.33551L5.15086 5.61347C3.40286 6.05047 2.23686 7.55451 2.24986 9.35651C2.26286 11.1585 3.44887 12.6454 5.20287 13.0584L9.84886 14.1514L10.9419 18.7974C11.3549 20.5514 12.8418 21.7374 14.6438 21.7504C14.6538 21.7504 14.6628 21.7504 14.6728 21.7504C16.4618 21.7504 17.9519 20.5874 18.3869 18.8494L21.6648 5.73651C21.9058 4.77051 21.6299 3.77545 20.9269 3.07245ZM20.2088 5.37042L16.9309 18.4835C16.6019 19.7955 15.4949 20.2345 14.6539 20.2495C13.8089 20.2435 12.7118 19.7695 12.4018 18.4525L11.2978 13.7624L15.5299 9.53046C15.8229 9.23746 15.8229 8.76242 15.5299 8.46942C15.2369 8.17642 14.7619 8.17642 14.4689 8.46942L10.2369 12.7015L5.54686 11.5975C4.22986 11.2875 3.75586 10.1904 3.74986 9.3454C3.74386 8.4994 4.20285 7.39642 5.51585 7.06842L18.6279 3.79047C18.7349 3.76347 18.8428 3.75043 18.9488 3.75043C19.2888 3.75043 19.6169 3.88451 19.8659 4.13251C20.1929 4.45951 20.3208 4.92242 20.2088 5.37042Z" fill="#41416E"/>
</svg>
